<svg xmlns="http://www.w3.org/2000/svg" width="350" height="100" viewBox="0 0 350 100" fill="none"><path fill-rule="evenodd" clip-rule="evenodd" d="M62.5138 57.9386V62.9128C62.5138 66.2942 61.1249 69.7555 58.3854 73.2005C56.2931 75.8317 53.3985 78.4739 49.7821 81.0536C43.7067 85.3874 37.7243 88.0458 37.4727 88.1568C37.2399 88.2597 36.9904 88.311 36.7408 88.311C36.4912 88.311 36.2416 88.2595 36.0089 88.1568C35.7572 88.0458 29.7747 85.3874 23.6993 81.0536C20.0829 78.4739 17.1882 75.8317 15.0959 73.2005C12.3565 69.7554 10.9673 66.2941 10.9673 62.9128V12.5993C10.9673 11.8198 11.4862 11.1326 12.2437 10.9086L36.226 10.9969H37.2556L61.2374 10.9086C61.9952 11.1326 62.5138 11.8198 62.5138 12.5993V19.2284L73.2484 8.5998V2.42487C73.2484 1.30687 72.5114 0.321189 71.4346 0L37.3561 0.126585H35.893L1.8138 0C0.737296 0.321189 0 1.30687 0 2.42487V63.5715C0 68.4212 1.97399 73.3857 5.86681 78.3271C8.83992 82.101 12.9533 85.8906 18.0924 89.5908C26.7256 95.8067 35.2268 99.6197 35.5845 99.7789C35.9152 99.9262 36.2699 100 36.6245 100C36.9792 100 37.3338 99.9264 37.6646 99.7789C38.0221 99.6197 46.5232 95.8067 55.1564 89.5908C60.2954 85.8906 64.4087 82.101 67.3819 78.3271C71.2747 73.3859 73.2484 68.4214 73.2484 63.5715V47.31L62.5138 57.9386Z" fill="#03203E"></path><path d="M46.1779 30.344C46.1263 35.6036 41.8071 39.8257 36.5308 39.7742C31.2544 39.7228 27.0189 35.4173 27.0705 30.1577C27.1221 24.8981 31.4413 20.6761 36.7177 20.7275C41.994 20.779 46.2295 25.0844 46.1779 30.344Z" fill="#19AFA7"></path><path d="M79.5237 10.223L38.7229 50.5421C37.8209 51.4384 36.3721 51.4717 35.4297 50.6177L24.7564 40.2442C23.2432 38.7735 20.7004 39.8422 20.7004 41.9489V59.4891C20.7004 60.126 20.9564 60.7363 21.4112 61.1837L35.3369 74.8842C36.2804 75.7391 37.7311 75.7047 38.6326 74.806L82.899 30.6801C83.347 30.2336 83.5986 29.628 83.5986 28.9965V11.9092C83.5986 9.78968 81.0294 8.7266 79.5237 10.223Z" fill="#19AFA7"></path><path d="M106.314 46.125V13.8931H119.58C119.892 13.8931 120.294 13.908 120.784 13.9378C121.275 13.9528 121.728 13.9975 122.144 14.0721C124.002 14.3557 125.533 14.9749 126.737 15.93C127.956 16.885 128.855 18.0937 129.435 19.556C130.03 21.0035 130.327 22.6151 130.327 24.3908C130.327 27.0171 129.666 29.2779 128.343 31.173C127.02 33.0532 124.991 34.2171 122.256 34.6648L119.959 34.8662H111.687V46.125H106.314ZM124.753 46.125L118.421 33.0084L123.883 31.7997L130.84 46.125H124.753ZM111.687 29.83H119.357C119.655 29.83 119.989 29.815 120.361 29.7852C120.732 29.7554 121.074 29.6957 121.386 29.6061C122.278 29.3823 122.977 28.9869 123.482 28.4198C124.002 27.8528 124.366 27.2111 124.575 26.4949C124.798 25.7786 124.909 25.0773 124.909 24.3908C124.909 23.7044 124.798 23.0031 124.575 22.2868C124.366 21.5556 124.002 20.9065 123.482 20.3395C122.977 19.7724 122.278 19.377 121.386 19.1531C121.074 19.0636 120.732 19.0114 120.361 18.9965C119.989 18.9666 119.655 18.9517 119.357 18.9517H111.687V29.83Z" fill="#03203E"></path><path d="M136.198 18.2802V13.3335H141.571V18.2802H136.198ZM136.198 46.125V21.9511H141.571V46.125H136.198Z" fill="#03203E"></path><path d="M158.373 57.5405C157.035 57.5405 155.749 57.3316 154.515 56.9137C153.296 56.4959 152.196 55.8916 151.215 55.1007C150.234 54.3247 149.432 53.3846 148.807 52.2804L153.757 49.8182C154.218 50.6986 154.865 51.3478 155.697 51.7656C156.544 52.1983 157.444 52.4147 158.395 52.4147C159.51 52.4147 160.506 52.2132 161.383 51.8104C162.259 51.4224 162.936 50.8404 163.411 50.0645C163.902 49.3034 164.132 48.3484 164.103 47.1994V40.3277H164.772V21.9511H169.476V47.2889C169.476 47.9007 169.446 48.4827 169.387 49.0348C169.342 49.6019 169.261 50.154 169.142 50.6912C168.785 52.258 168.101 53.5413 167.09 54.5411C166.08 55.5558 164.824 56.3094 163.322 56.8018C161.836 57.2943 160.186 57.5405 158.373 57.5405ZM157.904 46.7965C155.69 46.7965 153.757 46.2369 152.107 45.1178C150.457 43.9986 149.179 42.4765 148.272 40.5516C147.366 38.6266 146.912 36.4554 146.912 34.038C146.912 31.5908 147.366 29.4122 148.272 27.5021C149.194 25.5771 150.495 24.0625 152.174 22.9583C153.854 21.8391 155.831 21.2796 158.105 21.2796C160.394 21.2796 162.312 21.8391 163.857 22.9583C165.418 24.0625 166.6 25.5771 167.402 27.5021C168.205 29.4271 168.606 31.6057 168.606 34.038C168.606 36.4405 168.205 38.6117 167.402 40.5516C166.6 42.4765 165.403 43.9986 163.813 45.1178C162.222 46.2369 160.253 46.7965 157.904 46.7965ZM158.729 41.9617C160.171 41.9617 161.33 41.6334 162.207 40.9768C163.099 40.3053 163.746 39.3727 164.147 38.1789C164.563 36.9852 164.772 35.6049 164.772 34.038C164.772 32.4563 164.563 31.076 164.147 29.8971C163.746 28.7033 163.114 27.7782 162.252 27.1216C161.39 26.4501 160.275 26.1143 158.908 26.1143C157.466 26.1143 156.277 26.4725 155.34 27.1887C154.404 27.8901 153.713 28.8451 153.267 30.0538C152.821 31.2476 152.598 32.5757 152.598 34.038C152.598 35.5153 152.813 36.8583 153.244 38.067C153.69 39.2608 154.367 40.2084 155.273 40.9097C156.18 41.611 157.332 41.9617 158.729 41.9617Z" fill="#03203E"></path><path d="M192.384 46.125V34.4857C192.384 33.7247 192.332 32.8816 192.228 31.9564C192.124 31.0312 191.878 30.1433 191.492 29.2928C191.12 28.4273 190.555 27.7185 189.797 27.1664C189.054 26.6142 188.043 26.3382 186.765 26.3382C186.081 26.3382 185.405 26.4501 184.736 26.6739C184.067 26.8978 183.458 27.2857 182.908 27.8379C182.373 28.3751 181.942 29.1212 181.615 30.0762C181.288 31.0163 181.124 32.225 181.124 33.7023L177.936 32.3369C177.936 30.2776 178.33 28.4124 179.117 26.7411C179.92 25.0698 181.094 23.7417 182.64 22.7569C184.186 21.7571 186.089 21.2572 188.348 21.2572C190.132 21.2572 191.603 21.5556 192.763 22.1525C193.922 22.7494 194.844 23.5104 195.527 24.4356C196.211 25.3608 196.717 26.3456 197.044 27.3902C197.371 28.4347 197.579 29.4271 197.668 30.3672C197.772 31.2923 197.824 32.0459 197.824 32.6279V46.125H192.384ZM175.684 46.125V13.8931H180.477V30.8596H181.124V46.125H175.684Z" fill="#03203E"></path><path d="M217.756 46.125C216.165 46.4234 214.605 46.5503 213.074 46.5055C211.557 46.4757 210.197 46.1996 208.993 45.6773C207.789 45.1401 206.875 44.297 206.251 43.148C205.701 42.1035 205.411 41.0365 205.381 39.9472C205.352 38.8579 205.337 37.6268 205.337 36.254V15.2361H210.688V35.9406C210.688 36.9105 210.695 37.7611 210.71 38.4923C210.74 39.2235 210.896 39.8204 211.178 40.283C211.713 41.1783 212.568 41.6782 213.742 41.7826C214.917 41.8871 216.254 41.8274 217.756 41.6036V46.125ZM200.967 26.1815V21.9511H217.756V26.1815H200.967Z" fill="#03203E"></path><path d="M222.488 34.1276V29.8971H235.866V34.1276H222.488Z" fill="#03203E"></path><path d="M241.659 46.125V13.8931H247.032V27.4573H262.238V13.8931H267.59V46.125H262.238V32.516H247.032V46.125H241.659Z" fill="#03203E"></path><path d="M280.574 46.7965C278.835 46.7965 277.363 46.4682 276.159 45.8116C274.955 45.1401 274.041 44.2523 273.417 43.148C272.807 42.0438 272.503 40.8276 272.503 39.4995C272.503 38.3356 272.696 37.2911 273.082 36.3659C273.469 35.4258 274.063 34.62 274.866 33.9485C275.669 33.2621 276.709 32.7025 277.988 32.2697C278.954 31.9564 280.083 31.6729 281.377 31.4192C282.685 31.1655 284.097 30.9342 285.613 30.7253C287.144 30.5015 288.742 30.2627 290.407 30.009L288.489 31.1058C288.504 29.4345 288.132 28.2035 287.374 27.4126C286.616 26.6217 285.338 26.2263 283.539 26.2263C282.454 26.2263 281.406 26.4799 280.396 26.9873C279.385 27.4946 278.679 28.3676 278.277 29.6061L273.372 28.0617C273.967 26.0174 275.097 24.3759 276.761 23.1374C278.441 21.8988 280.7 21.2796 283.539 21.2796C285.68 21.2796 287.56 21.6302 289.18 22.3316C290.815 23.0329 292.027 24.1819 292.815 25.7786C293.246 26.6292 293.506 27.5021 293.595 28.3974C293.684 29.2779 293.729 30.2403 293.729 31.2849V46.125H289.024V40.8873L289.805 41.7379C288.72 43.4838 287.449 44.7671 285.992 45.5878C284.55 46.3936 282.744 46.7965 280.574 46.7965ZM281.644 42.4989C282.863 42.4989 283.904 42.2825 284.766 41.8498C285.628 41.417 286.312 40.8873 286.817 40.2606C287.337 39.6338 287.686 39.0444 287.865 38.4923C288.147 37.8059 288.303 37.0225 288.333 36.1421C288.378 35.2467 288.4 34.523 288.4 33.9709L290.05 34.4633C288.43 34.717 287.04 34.9408 285.88 35.1348C284.721 35.3288 283.725 35.5153 282.893 35.6944C282.06 35.8585 281.325 36.0451 280.685 36.254C280.061 36.4778 279.533 36.7389 279.102 37.0374C278.671 37.3358 278.337 37.679 278.099 38.067C277.876 38.455 277.765 38.9101 277.765 39.4324C277.765 40.0293 277.913 40.559 278.211 41.0216C278.508 41.4693 278.939 41.8274 279.504 42.096C280.083 42.3646 280.797 42.4989 281.644 42.4989Z" fill="#03203E"></path><path d="M316.189 46.125V34.4857C316.189 33.7247 316.137 32.8816 316.033 31.9564C315.929 31.0312 315.683 30.1433 315.297 29.2928C314.925 28.4273 314.36 27.7185 313.602 27.1664C312.859 26.6142 311.848 26.3382 310.57 26.3382C309.886 26.3382 309.21 26.4501 308.541 26.6739C307.872 26.8978 307.263 27.2857 306.713 27.8379C306.178 28.3751 305.747 29.1212 305.42 30.0762C305.093 31.0163 304.929 32.225 304.929 33.7023L301.741 32.3369C301.741 30.2776 302.135 28.4124 302.922 26.7411C303.725 25.0698 304.899 23.7417 306.445 22.7569C307.991 21.7571 309.894 21.2572 312.153 21.2572C313.937 21.2572 315.408 21.5556 316.568 22.1525C317.727 22.7494 318.649 23.5104 319.333 24.4356C320.016 25.3608 320.522 26.3456 320.849 27.3902C321.176 28.4347 321.384 29.4271 321.473 30.3672C321.577 31.2923 321.629 32.0459 321.629 32.6279V46.125H316.189ZM299.489 46.125V21.9511H304.283V29.4495H304.929V46.125H299.489Z" fill="#03203E"></path><path d="M336.71 46.7965C334.495 46.7965 332.563 46.2369 330.913 45.1178C329.263 43.9986 327.984 42.4765 327.078 40.5516C326.171 38.6266 325.718 36.4554 325.718 34.038C325.718 31.5908 326.171 29.4122 327.078 27.5021C327.999 25.5771 329.3 24.0625 330.979 22.9583C332.659 21.8391 334.636 21.2796 336.91 21.2796C339.199 21.2796 341.117 21.8391 342.663 22.9583C344.223 24.0625 345.405 25.5771 346.208 27.5021C347.01 29.4271 347.412 31.6057 347.412 34.038C347.412 36.4405 347.01 38.6117 346.208 40.5516C345.405 42.4765 344.209 43.9986 342.618 45.1178C341.028 46.2369 339.058 46.7965 336.71 46.7965ZM337.535 41.9617C338.976 41.9617 340.136 41.6334 341.013 40.9768C341.905 40.3053 342.551 39.3727 342.953 38.1789C343.369 36.9852 343.577 35.6049 343.577 34.038C343.577 32.4563 343.369 31.076 342.953 29.8971C342.551 28.7033 341.92 27.7782 341.057 27.1216C340.195 26.4501 339.08 26.1143 337.713 26.1143C336.271 26.1143 335.082 26.4725 334.146 27.1887C333.209 27.8901 332.518 28.8451 332.072 30.0538C331.626 31.2476 331.403 32.5757 331.403 34.038C331.403 35.5153 331.619 36.8583 332.05 38.067C332.496 39.2608 333.172 40.2084 334.079 40.9097C334.985 41.611 336.137 41.9617 337.535 41.9617ZM343.577 46.125V29.1585H342.908V13.8931H348.326V46.125H343.577Z" fill="#03203E"></path><path d="M113.488 88.8891C111.605 88.8891 110.015 88.4714 108.719 87.636C107.422 86.7918 106.441 85.6267 105.776 84.1406C105.11 82.6545 104.777 80.9398 104.777 78.9964C104.777 77.0531 105.11 75.3384 105.776 73.8523C106.441 72.3662 107.422 71.2055 108.719 70.3701C110.015 69.5259 111.605 69.1038 113.488 69.1038C115.687 69.1038 117.482 69.671 118.875 70.8054C120.268 71.9309 121.223 73.4434 121.739 75.3428L119.769 75.8572C119.366 74.3535 118.643 73.162 117.601 72.2827C116.558 71.4033 115.187 70.9636 113.488 70.9636C112.008 70.9636 110.777 71.3022 109.796 71.9793C108.815 72.6564 108.075 73.6017 107.576 74.8152C107.085 76.0199 106.831 77.4136 106.814 78.9964C106.805 80.5793 107.046 81.973 107.536 83.1777C108.036 84.3824 108.78 85.3277 109.77 86.0136C110.768 86.6907 112.008 87.0292 113.488 87.0292C115.187 87.0292 116.558 86.5896 117.601 85.7102C118.643 84.8221 119.366 83.6306 119.769 82.1357L121.739 82.6501C121.223 84.5495 120.268 86.0664 118.875 87.2007C117.482 88.3263 115.687 88.8891 113.488 88.8891Z" fill="#03203E"></path><path d="M132.028 88.4934V80.5397L125.682 69.4995H127.916L133.001 78.3237L138.059 69.4995H140.293L133.973 80.5397V88.4934H132.028Z" fill="#03203E"></path><path d="M145.802 88.4934V69.4995H153.107C154.167 69.4995 155.091 69.7194 155.88 70.159C156.668 70.5987 157.281 71.1923 157.719 71.9397C158.157 72.6784 158.376 73.4962 158.376 74.3931C158.376 75.4131 158.104 76.3232 157.561 77.1234C157.018 77.9148 156.291 78.4644 155.38 78.7722L155.354 78.1259C156.58 78.4776 157.544 79.0932 158.245 79.9725C158.945 80.8519 159.296 81.9159 159.296 83.1645C159.296 84.2637 159.064 85.2134 158.599 86.0136C158.135 86.805 157.483 87.4162 156.642 87.847C155.801 88.2779 154.824 88.4934 153.712 88.4934H145.802ZM147.747 86.6335H153.239C154.01 86.6335 154.702 86.4972 155.315 86.2246C155.928 85.9432 156.41 85.5475 156.76 85.0375C157.119 84.5275 157.299 83.912 157.299 83.1909C157.299 82.4874 157.137 81.8543 156.812 81.2915C156.488 80.7288 156.046 80.2803 155.485 79.9461C154.934 79.6032 154.303 79.4317 153.593 79.4317H147.747V86.6335ZM147.747 77.5983H153.094C153.699 77.5983 154.25 77.462 154.75 77.1894C155.249 76.908 155.643 76.5255 155.932 76.0419C156.23 75.5582 156.379 74.9998 156.379 74.3667C156.379 73.4698 156.068 72.7399 155.446 72.1771C154.833 71.6144 154.049 71.333 153.094 71.333H147.747V77.5983Z" fill="#03203E"></path><path d="M165.597 88.4934V69.4995H177.422V71.3593H167.528V77.928H175.845V79.7878H167.528V86.6335H177.422V88.4934H165.597Z" fill="#03203E"></path><path d="M184.262 88.4934V69.4995H191.567C191.751 69.4995 191.957 69.5083 192.185 69.5259C192.421 69.5347 192.658 69.5611 192.894 69.6051C193.884 69.7545 194.721 70.1019 195.404 70.6471C196.096 71.1835 196.617 71.8606 196.967 72.6784C197.326 73.4962 197.506 74.4019 197.506 75.3955C197.506 76.8289 197.129 78.0731 196.376 79.1283C195.623 80.1836 194.545 80.8475 193.144 81.1201L192.474 81.2783H186.193V88.4934H184.262ZM195.719 88.4934L191.988 80.7639L193.84 80.0517L197.94 88.4934H195.719ZM186.193 79.4317H191.515C191.672 79.4317 191.856 79.4229 192.066 79.4053C192.277 79.3878 192.483 79.357 192.684 79.313C193.332 79.1723 193.862 78.9041 194.274 78.5084C194.694 78.1127 195.005 77.6423 195.207 77.0971C195.417 76.5519 195.522 75.9847 195.522 75.3955C195.522 74.8064 195.417 74.2392 195.207 73.694C195.005 73.14 194.694 72.6652 194.274 72.2695C193.862 71.8738 193.332 71.6056 192.684 71.4649C192.483 71.4209 192.277 71.3945 192.066 71.3857C191.856 71.3681 191.672 71.3593 191.515 71.3593H186.193V79.4317Z" fill="#03203E"></path><path d="M211.088 88.8891C209.765 88.8891 208.574 88.6692 207.514 88.2295C206.463 87.7811 205.591 87.148 204.899 86.3302C204.216 85.5124 203.77 84.5407 203.559 83.4151L205.53 83.0854C205.845 84.3165 206.511 85.2837 207.527 85.9872C208.543 86.6819 209.756 87.0292 211.167 87.0292C212.095 87.0292 212.927 86.8841 213.663 86.594C214.399 86.295 214.977 85.8729 215.397 85.3277C215.818 84.7825 216.028 84.1362 216.028 83.3888C216.028 82.8963 215.94 82.4786 215.765 82.1357C215.59 81.784 215.358 81.4938 215.069 81.2651C214.78 81.0365 214.465 80.8475 214.123 80.698C213.781 80.5397 213.448 80.4122 213.124 80.3155L208.329 78.8777C207.751 78.7107 207.216 78.4996 206.726 78.2446C206.235 77.9808 205.806 77.6686 205.438 77.3081C205.079 76.9388 204.799 76.5079 204.597 76.0155C204.396 75.523 204.295 74.9603 204.295 74.3271C204.295 73.2543 204.575 72.3266 205.136 71.544C205.697 70.7614 206.463 70.159 207.435 69.737C208.408 69.3149 209.516 69.1082 210.759 69.117C212.021 69.117 213.146 69.3413 214.136 69.7897C215.135 70.2382 215.958 70.8801 216.606 71.7155C217.254 72.5421 217.684 73.5225 217.894 74.6569L215.87 75.0262C215.739 74.1996 215.437 73.483 214.964 72.8762C214.491 72.2695 213.886 71.8034 213.151 71.4781C212.424 71.1439 211.622 70.9724 210.746 70.9636C209.897 70.9636 209.139 71.1087 208.473 71.3989C207.816 71.6803 207.295 72.0672 206.91 72.5596C206.524 73.0521 206.332 73.6149 206.332 74.248C206.332 74.8899 206.507 75.4043 206.857 75.7912C207.216 76.1781 207.654 76.4815 208.171 76.7014C208.697 76.9212 209.205 77.1015 209.695 77.2422L213.4 78.3369C213.786 78.4425 214.237 78.5963 214.754 78.7986C215.279 78.992 215.787 79.2734 216.278 79.6428C216.777 80.0033 217.189 80.4781 217.513 81.0673C217.837 81.6565 217.999 82.4039 217.999 83.3096C217.999 84.189 217.824 84.976 217.473 85.6707C217.132 86.3653 216.646 86.9501 216.015 87.4249C215.393 87.8998 214.662 88.2603 213.821 88.5065C212.989 88.7615 212.078 88.8891 211.088 88.8891Z" fill="#03203E"></path><path d="M224.39 88.4934V69.4995H236.215V71.3593H226.321V77.928H234.638V79.7878H226.321V86.6335H236.215V88.4934H224.39Z" fill="#03203E"></path><path d="M250.048 88.8891C248.165 88.8891 246.575 88.4714 245.279 87.636C243.982 86.7918 243.001 85.6267 242.336 84.1406C241.67 82.6545 241.337 80.9398 241.337 78.9964C241.337 77.0531 241.67 75.3384 242.336 73.8523C243.001 72.3662 243.982 71.2055 245.279 70.3701C246.575 69.5259 248.165 69.1038 250.048 69.1038C252.247 69.1038 254.042 69.671 255.435 70.8054C256.828 71.9309 257.782 73.4434 258.299 75.3428L256.328 75.8572C255.925 74.3535 255.203 73.162 254.161 72.2827C253.118 71.4033 251.747 70.9636 250.048 70.9636C248.568 70.9636 247.337 71.3022 246.356 71.9793C245.375 72.6564 244.635 73.6017 244.136 74.8152C243.645 76.0199 243.391 77.4136 243.373 78.9964C243.365 80.5793 243.606 81.973 244.096 83.1777C244.595 84.3824 245.34 85.3277 246.33 86.0136C247.328 86.6907 248.568 87.0292 250.048 87.0292C251.747 87.0292 253.118 86.5896 254.161 85.7102C255.203 84.8221 255.925 83.6306 256.328 82.1357L258.299 82.6501C257.782 84.5495 256.828 86.0664 255.435 87.2007C254.042 88.3263 252.247 88.8891 250.048 88.8891Z" fill="#03203E"></path><path d="M272.261 88.8891C270.816 88.8891 269.537 88.5901 268.425 87.9921C267.321 87.3942 266.454 86.55 265.823 85.4596C265.192 84.3692 264.877 83.0942 264.877 81.6345V69.5127L266.822 69.4995V81.3839C266.822 82.3687 266.988 83.2217 267.321 83.9427C267.654 84.655 268.087 85.2442 268.622 85.7102C269.165 86.1675 269.756 86.506 270.395 86.7259C271.035 86.9457 271.657 87.0556 272.261 87.0556C272.874 87.0556 273.501 86.9457 274.14 86.7259C274.779 86.506 275.366 86.1675 275.901 85.7102C276.435 85.2442 276.868 84.655 277.201 83.9427C277.534 83.2217 277.701 82.3687 277.701 81.3839V69.4995H279.645V81.6345C279.645 83.0942 279.33 84.3692 278.699 85.4596C278.068 86.5412 277.197 87.3854 276.085 87.9921C274.981 88.5901 273.706 88.8891 272.261 88.8891Z" fill="#03203E"></path><path d="M287.007 88.4934V69.4995H294.312C294.496 69.4995 294.702 69.5083 294.93 69.5259C295.166 69.5347 295.403 69.5611 295.639 69.6051C296.629 69.7545 297.465 70.1019 298.149 70.6471C298.841 71.1835 299.362 71.8606 299.712 72.6784C300.071 73.4962 300.251 74.4019 300.251 75.3955C300.251 76.8289 299.874 78.0731 299.121 79.1283C298.368 80.1836 297.29 80.8475 295.889 81.1201L295.219 81.2783H288.938V88.4934H287.007ZM298.464 88.4934L294.732 80.7639L296.585 80.0517L300.684 88.4934H298.464ZM288.938 79.4317H294.259C294.417 79.4317 294.601 79.4229 294.811 79.4053C295.022 79.3878 295.227 79.357 295.429 79.313C296.077 79.1723 296.607 78.9041 297.019 78.5084C297.439 78.1127 297.75 77.6423 297.951 77.0971C298.162 76.5519 298.267 75.9847 298.267 75.3955C298.267 74.8064 298.162 74.2392 297.951 73.694C297.75 73.14 297.439 72.6652 297.019 72.2695C296.607 71.8738 296.077 71.6056 295.429 71.4649C295.227 71.4209 295.022 71.3945 294.811 71.3857C294.601 71.3681 294.417 71.3593 294.259 71.3593H288.938V79.4317Z" fill="#03203E"></path><path d="M307.526 88.4934V69.4995H309.457V88.4934H307.526Z" fill="#03203E"></path><path d="M322.107 88.4934V71.3593H315.499V69.4995H330.648V71.3593H324.039V88.4934H322.107Z" fill="#03203E"></path><path d="M341.736 88.4934V80.5397L335.39 69.4995H337.623L342.708 78.3237L347.766 69.4995H350L343.68 80.5397V88.4934H341.736Z" fill="#03203E"></path></svg>